<svg width="173" height="41" viewBox="0 0 173 41" fill="none" xmlns="http://www.w3.org/2000/svg">
<g id="Logo Gamecasting" filter="url(#filter0_d_121_6)">
<rect id="Borda Preta" x="0.999579" y="1.00241" width="154.689" height="37.9335" transform="matrix(0.999997 0.00241325 -0.00041762 1 16.115 -0.00241211)" fill="#7A04EB" stroke="black" stroke-width="2"/>
<g id="Fundo T&#195;&#173;tulo Logo" filter="url(#filter1_d_121_6)">
<rect y="6.93994" width="169.428" height="26.3089" fill="#D9D9D9"/>
</g>
<g id="GAMECASTING">
<path d="M13.0938 15.1094C13.0365 14.6875 12.9323 14.3099 12.7813 13.9766C12.6302 13.638 12.4271 13.3516 12.1719 13.1172C11.9167 12.8776 11.6068 12.6953 11.2422 12.5703C10.8776 12.4453 10.4531 12.3828 9.96875 12.3828C9.10938 12.3828 8.29427 12.599 7.52344 13.0313C6.7526 13.4635 6.09375 14.099 5.54688 14.9375C5 15.7708 4.6276 16.7865 4.42969 17.9844C4.23177 19.1927 4.24219 20.2161 4.46094 21.0547C4.67969 21.8932 5.08073 22.5312 5.66406 22.9687C6.2526 23.401 6.99219 23.6172 7.88281 23.6172C8.70052 23.6172 9.44271 23.4609 10.1094 23.1484C10.776 22.8359 11.3281 22.3932 11.7656 21.8203C12.2083 21.2422 12.4896 20.5651 12.6094 19.7891L13.25 19.8906H8.89844L9.28906 17.625H15.7813L15.4531 19.5469C15.2292 20.9219 14.7422 22.1094 13.9922 23.1094C13.2474 24.1042 12.3177 24.8724 11.2031 25.4141C10.0938 25.9505 8.8776 26.2187 7.55469 26.2187C6.08594 26.2187 4.84896 25.888 3.84375 25.2266C2.84375 24.5599 2.13542 23.6146 1.71875 22.3906C1.30208 21.1615 1.23438 19.7031 1.51563 18.0156C1.72396 16.724 2.09375 15.5703 2.625 14.5547C3.16146 13.5391 3.81771 12.6771 4.59375 11.9687C5.375 11.2552 6.24219 10.7135 7.19531 10.3437C8.14844 9.96875 9.14844 9.78125 10.1953 9.78125C11.0755 9.78125 11.8776 9.91146 12.6016 10.1719C13.3255 10.4271 13.9453 10.7917 14.4609 11.2656C14.9818 11.7396 15.3802 12.3021 15.6563 12.9531C15.9323 13.6042 16.0625 14.3229 16.0469 15.1094H13.0938ZM18.7461 26H15.6523L23.9414 10H27.5195L30.5039 26H27.4102L25.2617 13.2812H25.1367L18.7461 26ZM19.8867 19.7266H28.3242L27.9336 22.0547H19.4961L19.8867 19.7266ZM35.2676 10H38.8145L41.6504 21.5937H41.8379L48.502 10H52.0488L49.3926 26H46.6113L48.4395 15.0078H48.2988L42.0488 25.9531H39.9785L37.3848 14.9844H37.2363L35.3926 26H32.6113L35.2676 10ZM52.5488 26L55.2051 10H65.6113L65.2051 12.4297H57.6973L56.9785 16.7734H63.9473L63.541 19.2031H56.5723L55.8535 23.5703H63.4238L63.0176 26H52.5488ZM81.3496 15.3984H78.4746C78.4746 14.9193 78.3965 14.4948 78.2402 14.125C78.084 13.75 77.8652 13.4323 77.584 13.1719C77.3027 12.9115 76.9694 12.7161 76.584 12.5859C76.1986 12.4505 75.7715 12.3828 75.3027 12.3828C74.4069 12.3828 73.5736 12.6094 72.8027 13.0625C72.0319 13.5156 71.3783 14.1745 70.8418 15.0391C70.3053 15.8984 69.9329 16.9427 69.7246 18.1719C69.5319 19.3698 69.5501 20.3724 69.7793 21.1797C70.0137 21.987 70.4199 22.5964 70.998 23.0078C71.5762 23.4141 72.2793 23.6172 73.1074 23.6172C73.6126 23.6172 74.097 23.5547 74.5605 23.4297C75.0241 23.2995 75.4512 23.1094 75.8418 22.8594C76.2376 22.6042 76.584 22.2943 76.8809 21.9297C77.1829 21.5651 77.4173 21.151 77.584 20.6875H80.498C80.2585 21.4479 79.9069 22.1641 79.4434 22.8359C78.9798 23.5026 78.4225 24.0911 77.7715 24.6016C77.1204 25.1068 76.3913 25.5026 75.584 25.7891C74.7767 26.0755 73.9069 26.2187 72.9746 26.2187C71.5423 26.2187 70.3158 25.8854 69.2949 25.2188C68.2793 24.5469 67.5501 23.5859 67.1074 22.3359C66.6647 21.0807 66.5866 19.5781 66.873 17.8281C67.1595 16.125 67.7116 14.6745 68.5293 13.4766C69.3522 12.2786 70.3548 11.3646 71.5371 10.7344C72.7246 10.099 74.0033 9.78125 75.373 9.78125C76.2793 9.78125 77.1022 9.90625 77.8418 10.1562C78.5866 10.4062 79.2246 10.7734 79.7559 11.2578C80.2871 11.737 80.6908 12.3255 80.9668 13.0234C81.248 13.7161 81.3757 14.5078 81.3496 15.3984ZM84.123 26H81.0293L89.3184 10H92.8965L95.8809 26H92.7871L90.6387 13.2812H90.5137L84.123 26ZM85.2637 19.7266H93.7012L93.3105 22.0547H84.873L85.2637 19.7266ZM108.332 14.4766C108.353 13.7526 108.132 13.1979 107.668 12.8125C107.21 12.4271 106.551 12.2344 105.691 12.2344C105.087 12.2344 104.553 12.3255 104.09 12.5078C103.632 12.6849 103.262 12.9323 102.98 13.25C102.699 13.5625 102.525 13.9193 102.457 14.3203C102.4 14.6484 102.428 14.9349 102.543 15.1797C102.658 15.4245 102.832 15.6328 103.066 15.8047C103.306 15.9766 103.577 16.1198 103.879 16.2344C104.186 16.349 104.499 16.4453 104.816 16.5234L106.254 16.8984C106.827 17.0391 107.374 17.2292 107.895 17.4687C108.415 17.7031 108.866 18.0052 109.246 18.375C109.632 18.7396 109.913 19.1797 110.09 19.6953C110.267 20.2109 110.296 20.8151 110.176 21.5078C110.02 22.4453 109.642 23.2708 109.043 23.9844C108.449 24.6927 107.668 25.2474 106.699 25.6484C105.736 26.0443 104.613 26.2422 103.332 26.2422C102.092 26.2422 101.046 26.0495 100.191 25.6641C99.3372 25.2734 98.7122 24.7083 98.3164 23.9687C97.9258 23.2292 97.8008 22.3307 97.9414 21.2734H100.793C100.736 21.8307 100.827 22.2943 101.066 22.6641C101.311 23.0339 101.663 23.3099 102.121 23.4922C102.579 23.6745 103.111 23.7656 103.715 23.7656C104.345 23.7656 104.915 23.6719 105.426 23.4844C105.936 23.2917 106.353 23.026 106.676 22.6875C107.004 22.3437 107.204 21.9427 107.277 21.4844C107.35 21.0729 107.29 20.7292 107.098 20.4531C106.905 20.1771 106.605 19.9479 106.199 19.7656C105.798 19.5781 105.319 19.4115 104.762 19.2656L103.027 18.7969C101.772 18.4531 100.819 17.9375 100.168 17.25C99.5221 16.5625 99.293 15.6458 99.4805 14.5C99.6367 13.5521 100.03 12.7266 100.66 12.0234C101.29 11.3151 102.079 10.7656 103.027 10.375C103.975 9.97917 105.012 9.78125 106.137 9.78125C107.272 9.78125 108.233 9.97917 109.02 10.375C109.811 10.7708 110.389 11.3229 110.754 12.0312C111.124 12.7344 111.246 13.5495 111.121 14.4766H108.332ZM113.564 12.4297L113.971 10H126.736L126.33 12.4297H121.385L119.135 26H116.26L118.51 12.4297H113.564ZM132.096 10L129.439 26H126.541L129.197 10H132.096ZM148.383 10L145.727 26H143.148L137.422 15.1016H137.297L135.477 26H132.578L135.234 10H137.828L143.547 20.9062H143.695L145.5 10H148.383ZM161.4 15.1094C161.343 14.6875 161.239 14.3099 161.088 13.9766C160.937 13.638 160.734 13.3516 160.479 13.1172C160.223 12.8776 159.913 12.6953 159.549 12.5703C159.184 12.4453 158.76 12.3828 158.275 12.3828C157.416 12.3828 156.601 12.599 155.83 13.0313C155.059 13.4635 154.4 14.099 153.854 14.9375C153.307 15.7708 152.934 16.7865 152.736 17.9844C152.538 19.1927 152.549 20.2161 152.768 21.0547C152.986 21.8932 153.387 22.5312 153.971 22.9687C154.559 23.401 155.299 23.6172 156.189 23.6172C157.007 23.6172 157.749 23.4609 158.416 23.1484C159.083 22.8359 159.635 22.3932 160.072 21.8203C160.515 21.2422 160.796 20.5651 160.916 19.7891L161.557 19.8906H157.205L157.596 17.625H164.088L163.76 19.5469C163.536 20.9219 163.049 22.1094 162.299 23.1094C161.554 24.1042 160.624 24.8724 159.51 25.4141C158.4 25.9505 157.184 26.2187 155.861 26.2187C154.393 26.2187 153.156 25.888 152.15 25.2266C151.15 24.5599 150.442 23.6146 150.025 22.3906C149.609 21.1615 149.541 19.7031 149.822 18.0156C150.031 16.724 150.4 15.5703 150.932 14.5547C151.468 13.5391 152.124 12.6771 152.9 11.9687C153.682 11.2552 154.549 10.7135 155.502 10.3437C156.455 9.96875 157.455 9.78125 158.502 9.78125C159.382 9.78125 160.184 9.91146 160.908 10.1719C161.632 10.4271 162.252 10.7917 162.768 11.2656C163.288 11.7396 163.687 12.3021 163.963 12.9531C164.239 13.6042 164.369 14.3229 164.354 15.1094H161.4Z" fill="black"/>
<path d="M13.0938 15.1094L12.1028 15.2439L12.2204 16.1094H13.0938V15.1094ZM12.7813 13.9766L11.868 14.384L11.8704 14.3893L12.7813 13.9766ZM12.1719 13.1172L11.4874 13.8463L11.4955 13.8537L12.1719 13.1172ZM11.2422 12.5703L11.5665 11.6244L11.5665 11.6244L11.2422 12.5703ZM7.52344 13.0313L8.01258 13.9035L8.01258 13.9035L7.52344 13.0313ZM5.54688 14.9375L6.38293 15.4862L6.38449 15.4838L5.54688 14.9375ZM4.42969 17.9844L3.44306 17.8214L3.44284 17.8227L4.42969 17.9844ZM4.46094 21.0547L3.49332 21.3071L3.49332 21.3071L4.46094 21.0547ZM5.66406 22.9687L5.06403 23.7688L5.07208 23.7747L5.66406 22.9687ZM10.1094 23.1484L9.68494 22.243L9.68494 22.243L10.1094 23.1484ZM11.7656 21.8203L10.9717 21.2123L10.9709 21.2134L11.7656 21.8203ZM12.6094 19.7891L12.766 18.8014L11.7743 18.6442L11.6211 19.6365L12.6094 19.7891ZM13.25 19.8906V20.8906L13.4066 18.903L13.25 19.8906ZM8.89844 19.8906L7.91298 19.7207L7.71127 20.8906H8.89844V19.8906ZM9.28906 17.625V16.625H8.44672L8.3036 17.4551L9.28906 17.625ZM15.7813 17.625L16.767 17.7933L16.9665 16.625H15.7813V17.625ZM15.4531 19.5469L14.4674 19.3786L14.4661 19.3861L15.4531 19.5469ZM13.9922 23.1094L13.1922 22.5094L13.1917 22.51L13.9922 23.1094ZM11.2031 25.4141L11.6385 26.3143L11.6402 26.3135L11.2031 25.4141ZM3.84375 25.2266L3.28904 26.0586L3.29405 26.0619L3.84375 25.2266ZM1.71875 22.3906L0.771683 22.7117L0.7721 22.7129L1.71875 22.3906ZM1.51563 18.0156L2.50203 18.18L2.50287 18.1749L1.51563 18.0156ZM2.625 14.5547L1.74076 14.0876L1.7389 14.0912L2.625 14.5547ZM4.59375 11.9687L5.2679 12.7073L5.26814 12.7071L4.59375 11.9687ZM7.19531 10.3437L7.55703 11.2761L7.56144 11.2743L7.19531 10.3437ZM12.6016 10.1719L12.2631 11.1129L12.2691 11.115L12.6016 10.1719ZM14.4609 11.2656L13.7842 12.0019L13.7879 12.0052L14.4609 11.2656ZM15.6563 12.9531L16.5769 12.5628L16.5769 12.5628L15.6563 12.9531ZM16.0469 15.1094V16.1094H17.0272L17.0467 15.1292L16.0469 15.1094ZM14.0847 14.9748C14.0164 14.4721 13.8891 13.9986 13.6921 13.5638L11.8704 14.3893C11.9755 14.6212 12.0565 14.9029 12.1028 15.2439L14.0847 14.9748ZM13.6945 13.5691C13.4917 13.1147 13.211 12.7137 12.8483 12.3807L11.4955 13.8537C11.6432 13.9894 11.7687 14.1613 11.868 14.384L13.6945 13.5691ZM12.8563 12.3881C12.4878 12.0421 12.0515 11.7906 11.5665 11.6244L10.9179 13.5163C11.1621 13.6 11.3456 13.7131 11.4874 13.8463L12.8563 12.3881ZM11.5665 11.6244C11.0747 11.4557 10.5364 11.3828 9.96875 11.3828V13.3828C10.3699 13.3828 10.6805 13.4349 10.9179 13.5163L11.5665 11.6244ZM9.96875 11.3828C8.93307 11.3828 7.95011 11.6454 7.0343 12.159L8.01258 13.9035C8.63843 13.5525 9.28568 13.3828 9.96875 13.3828V11.3828ZM7.0343 12.159C6.10497 12.6802 5.33247 13.4357 4.70926 14.3912L6.38449 15.4838C6.85503 14.7623 7.40024 14.2469 8.01258 13.9035L7.0343 12.159ZM4.71083 14.3888C4.07262 15.3614 3.65887 16.5151 3.44306 17.8214L5.41631 18.1474C5.59634 17.0578 5.92738 16.1803 6.38292 15.4862L4.71083 14.3888ZM3.44284 17.8227C3.23101 19.116 3.22791 20.2897 3.49332 21.3071L5.42855 20.8023C5.25646 20.1426 5.23254 19.2694 5.41654 18.146L3.44284 17.8227ZM3.49332 21.3071C3.75798 22.3216 4.26728 23.1712 5.06406 23.7687L6.26406 22.1687C5.89418 21.8913 5.6014 21.4648 5.42855 20.8023L3.49332 21.3071ZM5.07208 23.7747C5.8671 24.3587 6.82697 24.6172 7.88281 24.6172V22.6172C7.15741 22.6172 6.63811 22.4434 6.25604 22.1628L5.07208 23.7747ZM7.88281 24.6172C8.83086 24.6172 9.72025 24.4353 10.5338 24.0539L9.68494 22.243C9.16516 22.4866 8.57018 22.6172 7.88281 22.6172V24.6172ZM10.5338 24.0539C11.3429 23.6746 12.0231 23.1308 12.5604 22.4272L10.9709 21.2134C10.6331 21.6557 10.2092 21.9972 9.68494 22.243L10.5338 24.0539ZM12.5596 22.4283C13.1121 21.7067 13.4544 20.87 13.5977 19.9416L11.6211 19.6365C11.5248 20.2602 11.3045 20.7777 10.9717 21.2123L12.5596 22.4283ZM12.4528 20.7767L13.0934 20.8783L13.4066 18.903L12.766 18.8014L12.4528 20.7767ZM13.25 18.8906H8.89844V20.8906H13.25V18.8906ZM9.8839 20.0605L10.2745 17.7949L8.3036 17.4551L7.91298 19.7207L9.8839 20.0605ZM9.28906 18.625H15.7813V16.625H9.28906V18.625ZM14.7955 17.4567L14.4674 19.3786L16.4389 19.7152L16.767 17.7933L14.7955 17.4567ZM14.4661 19.3861C14.2651 20.6203 13.8346 21.6528 13.1922 22.5094L14.7922 23.7094C15.6497 22.566 16.1932 21.2235 16.4401 19.7076L14.4661 19.3861ZM13.1917 22.51C12.5421 23.3777 11.7369 24.0428 10.766 24.5146L11.6402 26.3135C12.8985 25.702 13.9527 24.8307 14.7927 23.7087L13.1917 22.51ZM10.7678 24.5138C9.80398 24.9799 8.73814 25.2187 7.55469 25.2187V27.2187C9.01707 27.2187 10.3835 26.9212 11.6385 26.3143L10.7678 24.5138ZM7.55469 25.2187C6.23787 25.2187 5.20258 24.9236 4.39345 24.3912L3.29405 26.0619C4.49534 26.8524 5.934 27.2187 7.55469 27.2187V25.2187ZM4.39845 24.3945C3.59592 23.8595 3.01683 23.1007 2.6654 22.0684L0.7721 22.7129C1.254 24.1285 2.09158 25.2603 3.28905 26.0586L4.39845 24.3945ZM2.66582 22.0696C2.31622 21.0383 2.23955 19.7548 2.50202 18.18L0.529231 17.8512C0.229201 19.6514 0.287947 21.2846 0.771684 22.7117L2.66582 22.0696ZM2.50287 18.1749C2.69645 16.9746 3.03621 15.9261 3.5111 15.0182L1.7389 14.0912C1.15129 15.2146 0.751462 16.4733 0.528384 17.8564L2.50287 18.1749ZM3.50923 15.0217C3.99685 14.0986 4.5846 13.331 5.2679 12.7073L3.9196 11.2302C3.05082 12.0231 2.32607 12.9796 1.74077 14.0876L3.50923 15.0217ZM5.26814 12.7071C5.9613 12.074 6.72325 11.5995 7.55702 11.276L6.8336 9.41146C5.76113 9.82756 4.7887 10.4364 3.91936 11.2304L5.26814 12.7071ZM7.56144 11.2743C8.39535 10.9462 9.27092 10.7812 10.1953 10.7812V8.78125C9.02595 8.78125 7.90153 8.99128 6.82919 9.41318L7.56144 11.2743ZM10.1953 10.7812C10.9765 10.7812 11.6621 10.8967 12.2631 11.1128L12.94 9.2309C12.0931 8.92624 11.1745 8.78125 10.1953 8.78125V10.7812ZM12.2691 11.115C12.8778 11.3296 13.3774 11.6279 13.7842 12.0019L15.1377 10.5294C14.5133 9.95545 13.7732 9.52459 12.934 9.22876L12.2691 11.115ZM13.7879 12.0052C14.2015 12.3816 14.5157 12.8248 14.7356 13.3435L16.5769 12.5628C16.2448 11.7794 15.7621 11.0976 15.134 10.526L13.7879 12.0052ZM14.7356 13.3435C14.9508 13.851 15.0602 14.4279 15.0471 15.0895L17.0467 15.1292C17.0648 14.2179 16.9138 13.3573 16.5769 12.5628L14.7356 13.3435ZM16.0469 14.1094H13.0938V16.1094H16.0469V14.1094ZM18.7461 26V27H19.3628L19.6396 26.449L18.7461 26ZM15.6523 26L14.7644 25.54L14.008 27H15.6523V26ZM23.9414 10V9H23.3332L23.0535 9.54L23.9414 10ZM27.5195 10L28.5026 9.81664L28.3503 9H27.5195V10ZM30.5039 26V27H31.7077L31.487 25.8166L30.5039 26ZM27.4102 26L26.4241 26.1666L26.5649 27H27.4102V26ZM25.2617 13.2812L26.2478 13.1147L26.107 12.2812H25.2617V13.2812ZM25.1367 13.2812V12.2812H24.52L24.2432 12.8323L25.1367 13.2812ZM19.8867 19.7266V18.7266H19.0405L18.9005 19.5611L19.8867 19.7266ZM28.3242 19.7266L29.3104 19.892L29.506 18.7266H28.3242V19.7266ZM27.9336 22.0547V23.0547H28.7798L28.9198 22.2202L27.9336 22.0547ZM19.4961 22.0547L18.5099 21.8892L18.3143 23.0547H19.4961V22.0547ZM18.7461 25H15.6523V27H18.7461V25ZM16.5403 26.46L24.8293 10.46L23.0535 9.54L14.7644 25.54L16.5403 26.46ZM23.9414 11H27.5195V9H23.9414V11ZM26.5365 10.1834L29.5209 26.1834L31.487 25.8166L28.5026 9.81664L26.5365 10.1834ZM30.5039 25H27.4102V27H30.5039V25ZM28.3962 25.8334L26.2478 13.1147L24.2757 13.4478L26.4241 26.1666L28.3962 25.8334ZM25.2617 12.2812H25.1367V14.2812H25.2617V12.2812ZM24.2432 12.8323L17.8525 25.551L19.6396 26.449L26.0303 13.7302L24.2432 12.8323ZM19.8867 20.7266H28.3242V18.7266H19.8867V20.7266ZM27.338 19.5611L26.9474 21.8892L28.9198 22.2202L29.3104 19.892L27.338 19.5611ZM27.9336 21.0547H19.4961V23.0547H27.9336V21.0547ZM20.4823 22.2202L20.8729 19.892L18.9005 19.5611L18.5099 21.8892L20.4823 22.2202ZM35.2676 10V9H34.4199L34.2811 9.83623L35.2676 10ZM38.8145 10L39.7858 9.7624L39.5993 9H38.8145V10ZM41.6504 21.5937L40.679 21.8314L40.8655 22.5937H41.6504V21.5937ZM41.8379 21.5937V22.5937H42.4165L42.7049 22.0921L41.8379 21.5937ZM48.502 10V9H47.9233L47.635 9.50166L48.502 10ZM52.0488 10L53.0353 10.1638L53.2285 9H52.0488V10ZM49.3926 26V27H50.2402L50.3791 26.1638L49.3926 26ZM46.6113 26L45.6249 25.8359L45.4313 27H46.6113V26ZM48.4395 15.0078L49.4259 15.1719L49.6195 14.0078H48.4395V15.0078ZM48.2988 15.0078V14.0078H47.7183L47.4304 14.5119L48.2988 15.0078ZM42.0488 25.9531V26.9531H42.6294L42.9172 26.449L42.0488 25.9531ZM39.9785 25.9531L39.0054 26.1832L39.1874 26.9531H39.9785V25.9531ZM37.3848 14.9844L38.3579 14.7543L38.1759 13.9844H37.3848V14.9844ZM37.2363 14.9844V13.9844H36.3898L36.25 14.8193L37.2363 14.9844ZM35.3926 26V27H36.2391L36.3789 26.1651L35.3926 26ZM32.6113 26L31.6248 25.8362L31.4316 27H32.6113V26ZM35.2676 11H38.8145V9H35.2676V11ZM37.8431 10.2376L40.679 21.8314L42.6218 21.3561L39.7858 9.7624L37.8431 10.2376ZM41.6504 22.5937H41.8379V20.5937H41.6504V22.5937ZM42.7049 22.0921L49.3689 10.4983L47.635 9.50166L40.9709 21.0954L42.7049 22.0921ZM48.502 11H52.0488V9H48.502V11ZM51.0623 9.83623L48.4061 25.8362L50.3791 26.1638L53.0353 10.1638L51.0623 9.83623ZM49.3926 25H46.6113V27H49.3926V25ZM47.5978 26.1641L49.4259 15.1719L47.453 14.8438L45.6249 25.8359L47.5978 26.1641ZM48.4395 14.0078H48.2988V16.0078H48.4395V14.0078ZM47.4304 14.5119L41.1804 25.4573L42.9172 26.449L49.1672 15.5037L47.4304 14.5119ZM42.0488 24.9531H39.9785V26.9531H42.0488V24.9531ZM40.9517 25.723L38.3579 14.7543L36.4116 15.2145L39.0054 26.1832L40.9517 25.723ZM37.3848 13.9844H37.2363V15.9844H37.3848V13.9844ZM36.25 14.8193L34.4063 25.8349L36.3789 26.1651L38.2226 15.1495L36.25 14.8193ZM35.3926 25H32.6113V27H35.3926V25ZM33.5978 26.1638L36.2541 10.1638L34.2811 9.83623L31.6248 25.8362L33.5978 26.1638ZM52.5488 26L51.5623 25.8362L51.3691 27H52.5488V26ZM55.2051 10V9H54.3574L54.2186 9.83623L55.2051 10ZM65.6113 10L66.5976 10.1649L66.7924 9H65.6113V10ZM65.2051 12.4297V13.4297H66.0518L66.1914 12.5946L65.2051 12.4297ZM57.6973 12.4297V11.4297H56.8491L56.7107 12.2664L57.6973 12.4297ZM56.9785 16.7734L55.9919 16.6102L55.7995 17.7734H56.9785V16.7734ZM63.9473 16.7734L64.9336 16.9384L65.1284 15.7734H63.9473V16.7734ZM63.541 19.2031V20.2031H64.3877L64.5273 19.368L63.541 19.2031ZM56.5723 19.2031V18.2031H55.7234L55.5855 19.0407L56.5723 19.2031ZM55.8535 23.5703L54.8668 23.4079L54.6755 24.5703H55.8535V23.5703ZM63.4238 23.5703L64.4101 23.7352L64.6049 22.5703H63.4238V23.5703ZM63.0176 26V27H63.8643L64.0039 26.1649L63.0176 26ZM53.5353 26.1638L56.1916 10.1638L54.2186 9.83623L51.5623 25.8362L53.5353 26.1638ZM55.2051 11H65.6113V9H55.2051V11ZM64.625 9.83509L64.2188 12.2648L66.1914 12.5946L66.5976 10.1649L64.625 9.83509ZM65.2051 11.4297H57.6973V13.4297H65.2051V11.4297ZM56.7107 12.2664L55.9919 16.6102L57.9651 16.9367L58.6839 12.5929L56.7107 12.2664ZM56.9785 17.7734H63.9473V15.7734H56.9785V17.7734ZM62.961 16.6085L62.5547 19.0382L64.5273 19.368L64.9336 16.9384L62.961 16.6085ZM63.541 18.2031H56.5723V20.2031H63.541V18.2031ZM55.5855 19.0407L54.8668 23.4079L56.8402 23.7327L57.559 19.3655L55.5855 19.0407ZM55.8535 24.5703H63.4238V22.5703H55.8535V24.5703ZM62.4375 23.4054L62.0313 25.8351L64.0039 26.1649L64.4101 23.7352L62.4375 23.4054ZM63.0176 25H52.5488V27H63.0176V25ZM81.3496 15.3984V16.3984H82.3208L82.3492 15.4277L81.3496 15.3984ZM78.4746 15.3984H77.4746V16.3984H78.4746V15.3984ZM78.2402 14.125L77.3171 14.5096L77.3191 14.5142L78.2402 14.125ZM76.584 12.5859L76.2525 13.5295L76.2639 13.5333L76.584 12.5859ZM72.8027 13.0625L73.3095 13.9246L73.3095 13.9246L72.8027 13.0625ZM70.8418 15.0391L71.6901 15.5686L71.6915 15.5663L70.8418 15.0391ZM69.7246 18.1719L68.7386 18.0048L68.7373 18.013L69.7246 18.1719ZM69.7793 21.1797L68.8173 21.4528L68.819 21.4585L69.7793 21.1797ZM70.998 23.0078L70.4182 23.8226L70.4231 23.826L70.998 23.0078ZM74.5605 23.4297L74.8209 24.3953L74.831 24.3924L74.5605 23.4297ZM75.8418 22.8594L76.3809 23.7017L76.3837 23.6998L75.8418 22.8594ZM76.8809 21.9297L76.1108 21.2916L76.1054 21.2983L76.8809 21.9297ZM77.584 20.6875V19.6875H76.8809L76.643 20.3492L77.584 20.6875ZM80.498 20.6875L81.4518 20.988L81.8616 19.6875H80.498V20.6875ZM79.4434 22.8359L80.2644 23.4068L80.2665 23.4038L79.4434 22.8359ZM77.7715 24.6016L78.3846 25.3916L78.3885 25.3885L77.7715 24.6016ZM75.584 25.7891L75.2496 24.8466L75.2496 24.8466L75.584 25.7891ZM69.2949 25.2188L68.7432 26.0528L68.7481 26.056L69.2949 25.2188ZM67.1074 22.3359L66.1644 22.6686L66.1648 22.6698L67.1074 22.3359ZM66.873 17.8281L65.8869 17.6623L65.8862 17.6666L66.873 17.8281ZM68.5293 13.4766L67.705 12.9103L67.7034 12.9128L68.5293 13.4766ZM71.5371 10.7344L72.0075 11.6168L72.0089 11.6161L71.5371 10.7344ZM77.8418 10.1562L77.5216 11.1036L77.5236 11.1043L77.8418 10.1562ZM79.7559 11.2578L79.0821 11.9968L79.0861 12.0004L79.7559 11.2578ZM80.9668 13.0234L80.0369 13.3913L80.0403 13.3996L80.9668 13.0234ZM81.3496 14.3984H78.4746V16.3984H81.3496V14.3984ZM79.4746 15.3984C79.4746 14.811 79.3787 14.2502 79.1614 13.7358L77.3191 14.5142C77.4142 14.7394 77.4746 15.0276 77.4746 15.3984H79.4746ZM79.1633 13.7404C78.9552 13.241 78.6562 12.8019 78.2634 12.4381L76.9046 13.9056C77.0742 14.0627 77.2128 14.259 77.3172 14.5096L79.1633 13.7404ZM78.2634 12.4381C77.8725 12.0762 77.4146 11.811 76.904 11.6385L76.2639 13.5333C76.5242 13.6213 76.733 13.7468 76.9046 13.9056L78.2634 12.4381ZM76.9155 11.6425C76.4091 11.4646 75.868 11.3828 75.3027 11.3828V13.3828C75.675 13.3828 75.988 13.4365 76.2525 13.5294L76.9155 11.6425ZM75.3027 11.3828C74.2291 11.3828 73.2207 11.6568 72.296 12.2004L73.3095 13.9246C73.9264 13.5619 74.5847 13.3828 75.3027 13.3828V11.3828ZM72.296 12.2004C71.3671 12.7464 70.6021 13.5287 69.9921 14.5118L71.6915 15.5663C72.1544 14.8203 72.6967 14.2848 73.3095 13.9246L72.296 12.2004ZM69.9935 14.5095C69.374 15.5019 68.9639 16.6758 68.7387 18.0048L70.7105 18.339C70.902 17.2097 71.2367 16.295 71.6901 15.5686L69.9935 14.5095ZM68.7373 18.013C68.531 19.2957 68.5346 20.4569 68.8173 21.4528L70.7413 20.9066C70.5657 20.2879 70.5328 19.4439 70.7119 18.3307L68.7373 18.013ZM68.819 21.4585C69.1041 22.4407 69.6241 23.2574 70.4182 23.8225L71.5779 22.1931C71.2157 21.9353 70.9233 21.5333 70.7396 20.9009L68.819 21.4585ZM70.4231 23.826C71.1971 24.3699 72.1099 24.6172 73.1074 24.6172V22.6172C72.4487 22.6172 71.9552 22.4582 71.573 22.1896L70.4231 23.826ZM73.1074 24.6172C73.696 24.6172 74.2681 24.5443 74.8209 24.3952L74.3002 22.4642C73.9259 22.5651 73.5293 22.6172 73.1074 22.6172V24.6172ZM74.831 24.3924C75.3859 24.2366 75.904 24.0068 76.3809 23.7016L75.3027 22.0171C74.9984 22.2119 74.6623 22.3624 74.2901 22.4669L74.831 24.3924ZM76.3837 23.6998C76.8677 23.3878 77.2929 23.0074 77.6563 22.5611L76.1054 21.2983C75.875 21.5812 75.6076 21.8206 75.2999 22.0189L76.3837 23.6998ZM77.6509 22.5677C78.0299 22.1103 78.3207 21.594 78.525 21.0258L76.643 20.3492C76.5139 20.7081 76.336 21.0199 76.1108 21.2917L77.6509 22.5677ZM77.584 21.6875H80.498V19.6875H77.584V21.6875ZM79.5443 20.387C79.3354 21.05 79.0285 21.6763 78.6203 22.2681L80.2665 23.4038C80.7853 22.6518 81.1816 21.8458 81.4518 20.988L79.5443 20.387ZM78.6223 22.2651C78.2167 22.8484 77.7286 23.3645 77.1545 23.8146L78.3885 25.3885C79.1164 24.8178 79.7429 24.1568 80.2644 23.4068L78.6223 22.2651ZM77.1584 23.8115C76.5948 24.2489 75.9605 24.5944 75.2496 24.8466L75.9184 26.7315C76.8221 26.4108 77.646 25.9647 78.3846 25.3916L77.1584 23.8115ZM75.2496 24.8466C74.5587 25.0918 73.803 25.2187 72.9746 25.2187V27.2187C74.0108 27.2187 74.9946 27.0593 75.9184 26.7315L75.2496 24.8466ZM72.9746 25.2187C71.7019 25.2187 70.6732 24.9245 69.8417 24.3815L68.7481 26.056C69.9583 26.8463 71.3827 27.2187 72.9746 27.2187V25.2187ZM69.8467 24.3847C69.0286 23.8435 68.4271 23.0666 68.05 22.0021L66.1648 22.6698C66.6732 24.1052 67.53 25.2502 68.7432 26.0528L69.8467 24.3847ZM68.0505 22.0033C67.6792 20.9505 67.5919 19.6269 67.8599 17.9897L65.8862 17.6666C65.5813 19.5293 65.6503 21.211 66.1644 22.6686L68.0505 22.0033ZM67.8592 17.994C68.1262 16.4067 68.6331 15.0982 69.3552 14.0403L67.7034 12.9128C66.79 14.2508 66.1928 15.8433 65.8869 17.6623L67.8592 17.994ZM69.3535 14.0428C70.0935 12.9657 70.9786 12.1653 72.0075 11.6168L71.0667 9.85191C69.731 10.5639 68.611 11.5916 67.705 12.9103L69.3535 14.0428ZM72.0089 11.6161C73.0487 11.0597 74.1649 10.7812 75.373 10.7812V8.78125C73.8416 8.78125 72.4005 9.13822 71.0653 9.85266L72.0089 11.6161ZM75.373 10.7812C76.1876 10.7812 76.9002 10.8936 77.5216 11.1036L78.162 9.20891C77.3042 8.91894 76.371 8.78125 75.373 8.78125V10.7812ZM77.5236 11.1043C78.149 11.3142 78.6628 11.6144 79.0821 11.9968L80.4296 10.5189C79.7865 9.93246 79.0242 9.49831 78.16 9.20823L77.5236 11.1043ZM79.0861 12.0004C79.4973 12.3713 79.8147 12.8294 80.0369 13.3912L81.8967 12.6556C81.5668 11.8217 81.0769 11.1027 80.4256 10.5152L79.0861 12.0004ZM80.0403 13.3996C80.2603 13.9415 80.3728 14.5912 80.35 15.3692L82.3492 15.4277C82.3785 14.4245 82.2358 13.4908 81.8933 12.6472L80.0403 13.3996ZM84.123 26V27H84.7397L85.0166 26.449L84.123 26ZM81.0293 26L80.1414 25.54L79.385 27H81.0293V26ZM89.3184 10V9H88.7102L88.4304 9.54L89.3184 10ZM92.8965 10L93.8795 9.81664L93.7272 9H92.8965V10ZM95.8809 26V27H97.0846L96.8639 25.8166L95.8809 26ZM92.7871 26L91.8011 26.1666L91.9419 27H92.7871V26ZM90.6387 13.2812L91.6247 13.1147L91.4839 12.2812H90.6387V13.2812ZM90.5137 13.2812V12.2812H89.897L89.6201 12.8323L90.5137 13.2812ZM85.2637 19.7266V18.7266H84.4175L84.2775 19.5611L85.2637 19.7266ZM93.7012 19.7266L94.6874 19.892L94.8829 18.7266H93.7012V19.7266ZM93.3105 22.0547V23.0547H94.1567L94.2968 22.2202L93.3105 22.0547ZM84.873 22.0547L83.8868 21.8892L83.6913 23.0547H84.873V22.0547ZM84.123 25H81.0293V27H84.123V25ZM81.9172 26.46L90.2063 10.46L88.4304 9.54L80.1414 25.54L81.9172 26.46ZM89.3184 11H92.8965V9H89.3184V11ZM91.9134 10.1834L94.8978 26.1834L96.8639 25.8166L93.8795 9.81664L91.9134 10.1834ZM95.8809 25H92.7871V27H95.8809V25ZM93.7731 25.8334L91.6247 13.1147L89.6526 13.4478L91.8011 26.1666L93.7731 25.8334ZM90.6387 12.2812H90.5137V14.2812H90.6387V12.2812ZM89.6201 12.8323L83.2295 25.551L85.0166 26.449L91.4072 13.7302L89.6201 12.8323ZM85.2637 20.7266H93.7012V18.7266H85.2637V20.7266ZM92.715 19.5611L92.3243 21.8892L94.2968 22.2202L94.6874 19.892L92.715 19.5611ZM93.3105 21.0547H84.873V23.0547H93.3105V21.0547ZM85.8593 22.2202L86.2499 19.892L84.2775 19.5611L83.8868 21.8892L85.8593 22.2202ZM108.332 14.4766L107.332 14.4478L107.303 15.4766H108.332V14.4766ZM107.668 12.8125L107.024 13.5779L107.029 13.5814L107.668 12.8125ZM104.09 12.5078L104.45 13.4406L104.456 13.4384L104.09 12.5078ZM102.98 13.25L103.724 13.919L103.729 13.9128L102.98 13.25ZM102.457 14.3203L103.442 14.4923L103.443 14.4868L102.457 14.3203ZM102.543 15.1797L103.449 14.7557L103.449 14.7557L102.543 15.1797ZM103.066 15.8047L102.475 16.6111L102.483 16.6172L103.066 15.8047ZM103.879 16.2344L103.524 17.1694L103.53 17.1714L103.879 16.2344ZM104.816 16.5234L105.069 15.5557L105.055 15.5524L104.816 16.5234ZM106.254 16.8984L106.001 17.8661L106.008 17.8679L106.016 17.8696L106.254 16.8984ZM107.895 17.4687L107.477 18.3773L107.484 18.3807L107.895 17.4687ZM109.246 18.375L108.549 19.0919L108.559 19.1015L109.246 18.375ZM110.176 21.5078L109.19 21.3374L109.189 21.3434L110.176 21.5078ZM109.043 23.9844L108.277 23.3414L108.277 23.342L109.043 23.9844ZM106.699 25.6484L107.079 26.5734L107.082 26.5724L106.699 25.6484ZM100.191 25.6641L99.7755 26.5735L99.7801 26.5756L100.191 25.6641ZM98.3164 23.9687L97.4322 24.4358L97.4347 24.4406L98.3164 23.9687ZM97.9414 21.2734V20.2734H97.0656L96.9501 21.1416L97.9414 21.2734ZM100.793 21.2734L101.788 21.3757L101.901 20.2734H100.793V21.2734ZM101.066 22.6641L100.227 23.2078L100.233 23.216L101.066 22.6641ZM102.121 23.4922L102.491 22.563L102.491 22.563L102.121 23.4922ZM105.426 23.4844L105.771 24.4231L105.779 24.4199L105.426 23.4844ZM106.676 22.6875L105.952 21.997L105.952 21.9973L106.676 22.6875ZM107.277 21.4844L106.293 21.3099L106.291 21.3186L106.29 21.3273L107.277 21.4844ZM107.098 20.4531L107.918 19.8807L107.918 19.8807L107.098 20.4531ZM106.199 19.7656L105.776 20.6715L105.783 20.6748L105.79 20.678L106.199 19.7656ZM104.762 19.2656L104.501 20.231L104.509 20.233L104.762 19.2656ZM103.027 18.7969L102.763 19.7614L102.766 19.7622L103.027 18.7969ZM100.168 17.25L99.4391 17.9347L99.4419 17.9376L100.168 17.25ZM99.4805 14.5L98.4938 14.3374L98.4936 14.3385L99.4805 14.5ZM100.66 12.0234L101.405 12.6909L101.407 12.6881L100.66 12.0234ZM103.027 10.375L103.408 11.2996L103.413 11.2978L103.027 10.375ZM109.02 10.375L108.57 11.2682L108.572 11.2694L109.02 10.375ZM110.754 12.0312L109.865 12.4889L109.869 12.4967L110.754 12.0312ZM111.121 14.4766V15.4766H111.995L112.112 14.6102L111.121 14.4766ZM109.332 14.5053C109.359 13.5432 109.056 12.6657 108.307 12.0436L107.029 13.5814C107.208 13.7302 107.346 13.962 107.332 14.4478L109.332 14.5053ZM108.312 12.0471C107.609 11.4561 106.686 11.2344 105.691 11.2344V13.2344C106.416 13.2344 106.811 13.3981 107.024 13.5779L108.312 12.0471ZM105.691 11.2344C104.988 11.2344 104.326 11.3404 103.724 11.5772L104.456 13.4384C104.781 13.3106 105.187 13.2344 105.691 13.2344V11.2344ZM103.729 11.575C103.146 11.8006 102.635 12.1321 102.232 12.5872L103.729 13.9128C103.889 13.7325 104.117 13.5692 104.45 13.4406L103.729 11.575ZM102.237 12.581C101.833 13.0296 101.571 13.5591 101.471 14.1538L103.443 14.4868C103.478 14.2794 103.565 14.0954 103.724 13.919L102.237 12.581ZM101.472 14.1483C101.388 14.631 101.417 15.1337 101.637 15.6036L103.449 14.7557C103.439 14.7361 103.412 14.6659 103.442 14.4923L101.472 14.1483ZM101.637 15.6036C101.828 16.0116 102.116 16.3478 102.475 16.6111L103.658 14.9983C103.548 14.9179 103.487 14.8374 103.449 14.7557L101.637 15.6036ZM102.483 16.6172C102.8 16.8442 103.149 17.0269 103.524 17.1694L104.234 15.2994C104.005 15.2126 103.812 15.1089 103.649 14.9921L102.483 16.6172ZM103.53 17.1714C103.873 17.2994 104.222 17.4071 104.578 17.4945L105.055 15.5524C104.775 15.4835 104.499 15.3985 104.228 15.2974L103.53 17.1714ZM104.564 17.4911L106.001 17.8661L106.506 15.9308L105.069 15.5558L104.564 17.4911ZM106.016 17.8696C106.529 17.9955 107.015 18.165 107.477 18.3772L108.312 16.5603C107.732 16.2934 107.125 16.0826 106.492 15.9273L106.016 17.8696ZM107.484 18.3807C107.907 18.5709 108.258 18.8093 108.549 19.0919L109.943 17.6581C109.473 17.2011 108.924 16.8353 108.305 16.5568L107.484 18.3807ZM108.559 19.1015C108.824 19.3519 109.018 19.6529 109.144 20.0201L111.036 19.3705C110.808 18.7064 110.439 18.1273 109.933 17.6485L108.559 19.1015ZM109.144 20.0201C109.253 20.3371 109.29 20.7637 109.19 21.3374L111.161 21.6782C111.302 20.8665 111.281 20.0848 111.036 19.3705L109.144 20.0201ZM109.189 21.3434C109.062 22.1083 108.759 22.7677 108.277 23.3414L109.809 24.6273C110.525 23.774 110.977 22.7823 111.162 21.6722L109.189 21.3434ZM108.277 23.342C107.799 23.9112 107.157 24.3767 106.317 24.7245L107.082 26.5724C108.179 26.1181 109.099 25.4742 109.809 24.6268L108.277 23.342ZM106.319 24.7234C105.501 25.0598 104.512 25.2422 103.332 25.2422V27.2422C104.715 27.2422 105.971 27.0288 107.079 26.5734L106.319 24.7234ZM103.332 25.2422C102.191 25.2422 101.293 25.064 100.603 24.7526L99.7801 26.5756C100.798 27.0349 101.994 27.2422 103.332 27.2422V25.2422ZM100.607 24.7546C99.927 24.4435 99.4784 24.0206 99.1981 23.4969L97.4347 24.4406C97.9461 25.396 98.7475 26.1033 99.7755 26.5735L100.607 24.7546ZM99.2006 23.5017C98.9307 22.9907 98.8119 22.3135 98.9327 21.4053L96.9501 21.1416C96.7897 22.348 96.9208 23.4677 97.4322 24.4358L99.2006 23.5017ZM97.9414 22.2734H100.793V20.2734H97.9414V22.2734ZM99.7982 21.1712C99.7241 21.8926 99.8332 22.5998 100.227 23.2078L101.906 22.1203C101.82 21.9888 101.747 21.7689 101.788 21.3757L99.7982 21.1712ZM100.233 23.216C100.602 23.7749 101.126 24.1725 101.752 24.4214L102.491 22.563C102.2 22.4473 102.02 22.2928 101.9 22.1121L100.233 23.216ZM101.752 24.4214C102.351 24.6597 103.012 24.7656 103.715 24.7656V22.7656C103.21 22.7656 102.808 22.6893 102.491 22.563L101.752 24.4214ZM103.715 24.7656C104.444 24.7656 105.134 24.657 105.771 24.423L105.081 22.5457C104.697 22.6867 104.246 22.7656 103.715 22.7656V24.7656ZM105.779 24.4199C106.407 24.183 106.957 23.8414 107.399 23.3777L105.952 21.9973C105.749 22.2107 105.466 22.4003 105.073 22.5488L105.779 24.4199ZM107.399 23.378C107.864 22.8911 108.159 22.3054 108.265 21.6415L106.29 21.3273C106.25 21.58 106.144 21.7964 105.952 21.997L107.399 23.378ZM108.262 21.6589C108.369 21.0531 108.297 20.4239 107.918 19.8807L106.278 21.0255C106.284 21.0344 106.331 21.0927 106.293 21.3099L108.262 21.6589ZM107.918 19.8807C107.593 19.4158 107.128 19.0864 106.609 18.8533L105.79 20.678C106.083 20.8094 106.217 20.9384 106.278 21.0255L107.918 19.8807ZM106.623 18.8597C106.153 18.6403 105.614 18.4551 105.015 18.2982L104.509 20.233C105.024 20.3679 105.443 20.5159 105.776 20.6715L106.623 18.8597ZM105.023 18.3003L103.288 17.8315L102.766 19.7622L104.501 20.231L105.023 18.3003ZM103.291 17.8324C102.149 17.5196 101.381 17.0763 100.894 16.5624L99.4419 17.9376C100.257 18.7987 101.395 19.3867 102.763 19.7614L103.291 17.8324ZM100.897 16.5653C100.513 16.1568 100.317 15.5792 100.467 14.6615L98.4936 14.3385C98.2688 15.7125 98.5312 16.9682 99.4391 17.9347L100.897 16.5653ZM100.467 14.6626C100.593 13.8991 100.904 13.2496 101.405 12.6909L99.9155 11.356C99.1559 12.2035 98.6804 13.205 98.4938 14.3374L100.467 14.6626ZM101.407 12.6881C101.929 12.1021 102.589 11.6372 103.408 11.2996L102.646 9.45043C101.57 9.89402 100.652 10.5281 99.9131 11.3587L101.407 12.6881ZM103.413 11.2978C104.227 10.9576 105.131 10.7812 106.137 10.7812V8.78125C104.892 8.78125 103.723 9.00075 102.642 9.45222L103.413 11.2978ZM106.137 10.7812C107.16 10.7812 107.957 10.9599 108.57 11.2682L109.469 9.48176C108.509 8.9984 107.385 8.78125 106.137 8.78125V10.7812ZM108.572 11.2694C109.196 11.5814 109.608 11.9903 109.865 12.4889L111.643 11.5736C111.171 10.6556 110.426 9.96031 109.467 9.48057L108.572 11.2694ZM109.869 12.4967C110.126 12.9851 110.232 13.5841 110.13 14.3429L112.112 14.6102C112.26 13.5148 112.122 12.4837 111.639 11.5658L109.869 12.4967ZM111.121 13.4766H108.332V15.4766H111.121V13.4766ZM113.564 12.4297L112.578 12.2648L112.383 13.4297H113.564V12.4297ZM113.971 10V9H113.124L112.984 9.83509L113.971 10ZM126.736 10L127.723 10.1649L127.917 9H126.736V10ZM126.33 12.4297V13.4297H127.177L127.316 12.5946L126.33 12.4297ZM121.385 12.4297V11.4297H120.537L120.398 12.2661L121.385 12.4297ZM119.135 26V27H119.983L120.121 26.1636L119.135 26ZM116.26 26L115.273 25.8364L115.08 27H116.26V26ZM118.51 12.4297L119.496 12.5933L119.689 11.4297H118.51V12.4297ZM114.551 12.5946L114.957 10.1649L112.984 9.83509L112.578 12.2648L114.551 12.5946ZM113.971 11H126.736V9H113.971V11ZM125.75 9.83509L125.344 12.2648L127.316 12.5946L127.723 10.1649L125.75 9.83509ZM126.33 11.4297H121.385V13.4297H126.33V11.4297ZM120.398 12.2661L118.148 25.8364L120.121 26.1636L122.371 12.5933L120.398 12.2661ZM119.135 25H116.26V27H119.135V25ZM117.246 26.1636L119.496 12.5933L117.523 12.2661L115.273 25.8364L117.246 26.1636ZM118.51 11.4297H113.564V13.4297H118.51V11.4297ZM132.096 10L133.082 10.1638L133.275 9H132.096V10ZM129.439 26V27H130.287L130.426 26.1638L129.439 26ZM126.541 26L125.555 25.8362L125.361 27H126.541V26ZM129.197 10V9H128.35L128.211 9.83623L129.197 10ZM131.109 9.83623L128.453 25.8362L130.426 26.1638L133.082 10.1638L131.109 9.83623ZM129.439 25H126.541V27H129.439V25ZM127.528 26.1638L130.184 10.1638L128.211 9.83623L125.555 25.8362L127.528 26.1638ZM129.197 11H132.096V9H129.197V11ZM148.383 10L149.369 10.1638L149.563 9H148.383V10ZM145.727 26V27H146.574L146.713 26.1638L145.727 26ZM143.148 26L142.263 26.4651L142.544 27H143.148V26ZM137.422 15.1016L138.307 14.6364L138.026 14.1016H137.422V15.1016ZM137.297 15.1016V14.1016H136.45L136.311 14.9368L137.297 15.1016ZM135.477 26V27H136.323L136.463 26.1647L135.477 26ZM132.578 26L131.592 25.8362L131.398 27H132.578V26ZM135.234 10V9H134.387L134.248 9.83623L135.234 10ZM137.828 10L138.714 9.53561L138.433 9H137.828V10ZM143.547 20.9062L142.661 21.3706L142.942 21.9062H143.547V20.9062ZM143.695 20.9062V21.9062H144.543L144.682 21.0695L143.695 20.9062ZM145.5 10V9H144.652L144.513 9.83675L145.5 10ZM147.396 9.83623L144.74 25.8362L146.713 26.1638L149.369 10.1638L147.396 9.83623ZM145.727 25H143.148V27H145.727V25ZM144.034 25.5349L138.307 14.6364L136.537 15.5667L142.263 26.4651L144.034 25.5349ZM137.422 14.1016H137.297V16.1016H137.422V14.1016ZM136.311 14.9368L134.49 25.8353L136.463 26.1647L138.283 15.2663L136.311 14.9368ZM135.477 25H132.578V27H135.477V25ZM133.565 26.1638L136.221 10.1638L134.248 9.83623L131.592 25.8362L133.565 26.1638ZM135.234 11H137.828V9H135.234V11ZM136.942 10.4644L142.661 21.3706L144.433 20.4419L138.714 9.53561L136.942 10.4644ZM143.547 21.9062H143.695V19.9062H143.547V21.9062ZM144.682 21.0695L146.487 10.1633L144.513 9.83675L142.709 20.743L144.682 21.0695ZM145.5 11H148.383V9H145.5V11ZM161.4 15.1094L160.409 15.2439L160.527 16.1094H161.4V15.1094ZM161.088 13.9766L160.175 14.384L160.177 14.3893L161.088 13.9766ZM160.479 13.1172L159.794 13.8463L159.802 13.8537L160.479 13.1172ZM159.549 12.5703L159.873 11.6244L159.873 11.6244L159.549 12.5703ZM155.83 13.0313L156.319 13.9035L156.319 13.9035L155.83 13.0313ZM153.854 14.9375L154.69 15.4862L154.691 15.4838L153.854 14.9375ZM152.736 17.9844L151.75 17.8214L151.749 17.8227L152.736 17.9844ZM152.768 21.0547L151.8 21.3071L151.8 21.3071L152.768 21.0547ZM153.971 22.9687L153.371 23.7688L153.379 23.7747L153.971 22.9687ZM158.416 23.1484L157.992 22.243L157.992 22.243L158.416 23.1484ZM160.072 21.8203L159.278 21.2123L159.277 21.2134L160.072 21.8203ZM160.916 19.7891L161.073 18.8014L160.081 18.6442L159.928 19.6365L160.916 19.7891ZM161.557 19.8906V20.8906L161.713 18.903L161.557 19.8906ZM157.205 19.8906L156.22 19.7207L156.018 20.8906H157.205V19.8906ZM157.596 17.625V16.625H156.753L156.61 17.4551L157.596 17.625ZM164.088 17.625L165.074 17.7933L165.273 16.625H164.088V17.625ZM163.76 19.5469L162.774 19.3786L162.773 19.3861L163.76 19.5469ZM162.299 23.1094L161.499 22.5094L161.498 22.51L162.299 23.1094ZM159.51 25.4141L159.945 26.3143L159.947 26.3135L159.51 25.4141ZM152.15 25.2266L151.596 26.0586L151.601 26.0619L152.15 25.2266ZM150.025 22.3906L149.078 22.7117L149.079 22.7129L150.025 22.3906ZM149.822 18.0156L150.809 18.18L150.81 18.1749L149.822 18.0156ZM150.932 14.5547L150.047 14.0876L150.046 14.0912L150.932 14.5547ZM152.9 11.9687L153.575 12.7073L153.575 12.7071L152.9 11.9687ZM155.502 10.3437L155.864 11.2761L155.868 11.2743L155.502 10.3437ZM160.908 10.1719L160.57 11.1129L160.576 11.115L160.908 10.1719ZM162.768 11.2656L162.091 12.0019L162.095 12.0052L162.768 11.2656ZM163.963 12.9531L164.884 12.5628L164.884 12.5628L163.963 12.9531ZM164.354 15.1094V16.1094H165.334L165.353 15.1292L164.354 15.1094ZM162.391 14.9748C162.323 14.4721 162.196 13.9986 161.999 13.5638L160.177 14.3893C160.282 14.6212 160.363 14.9029 160.409 15.2439L162.391 14.9748ZM162.001 13.5691C161.798 13.1147 161.518 12.7137 161.155 12.3807L159.802 13.8537C159.95 13.9894 160.075 14.1613 160.175 14.384L162.001 13.5691ZM161.163 12.3881C160.794 12.0421 160.358 11.7906 159.873 11.6244L159.225 13.5163C159.469 13.6 159.652 13.7131 159.794 13.8463L161.163 12.3881ZM159.873 11.6244C159.381 11.4557 158.843 11.3828 158.275 11.3828V13.3828C158.677 13.3828 158.987 13.4349 159.225 13.5163L159.873 11.6244ZM158.275 11.3828C157.24 11.3828 156.257 11.6454 155.341 12.159L156.319 13.9035C156.945 13.5525 157.592 13.3828 158.275 13.3828V11.3828ZM155.341 12.159C154.412 12.6802 153.639 13.4357 153.016 14.3912L154.691 15.4838C155.162 14.7623 155.707 14.2469 156.319 13.9035L155.341 12.159ZM153.017 14.3888C152.379 15.3614 151.966 16.5151 151.75 17.8214L153.723 18.1474C153.903 17.0578 154.234 16.1803 154.69 15.4862L153.017 14.3888ZM151.749 17.8227C151.538 19.116 151.535 20.2897 151.8 21.3071L153.735 20.8023C153.563 20.1426 153.539 19.2694 153.723 18.146L151.749 17.8227ZM151.8 21.3071C152.065 22.3216 152.574 23.1712 153.371 23.7687L154.571 22.1687C154.201 21.8913 153.908 21.4648 153.735 20.8023L151.8 21.3071ZM153.379 23.7747C154.174 24.3587 155.134 24.6172 156.189 24.6172V22.6172C155.464 22.6172 154.945 22.4434 154.563 22.1628L153.379 23.7747ZM156.189 24.6172C157.137 24.6172 158.027 24.4353 158.84 24.0539L157.992 22.243C157.472 22.4866 156.877 22.6172 156.189 22.6172V24.6172ZM158.84 24.0539C159.65 23.6746 160.33 23.1308 160.867 22.4272L159.277 21.2134C158.94 21.6557 158.516 21.9972 157.992 22.243L158.84 24.0539ZM160.866 22.4283C161.419 21.7067 161.761 20.87 161.904 19.9416L159.928 19.6365C159.831 20.2602 159.611 20.7777 159.278 21.2123L160.866 22.4283ZM160.759 20.7767L161.4 20.8783L161.713 18.903L161.073 18.8014L160.759 20.7767ZM161.557 18.8906H157.205V20.8906H161.557V18.8906ZM158.191 20.0605L158.581 17.7949L156.61 17.4551L156.22 19.7207L158.191 20.0605ZM157.596 18.625H164.088V16.625H157.596V18.625ZM163.102 17.4567L162.774 19.3786L164.746 19.7152L165.074 17.7933L163.102 17.4567ZM162.773 19.3861C162.572 20.6203 162.141 21.6528 161.499 22.5094L163.099 23.7094C163.956 22.566 164.5 21.2235 164.747 19.7076L162.773 19.3861ZM161.498 22.51C160.849 23.3777 160.044 24.0428 159.073 24.5146L159.947 26.3135C161.205 25.702 162.259 24.8307 163.099 23.7087L161.498 22.51ZM159.074 24.5138C158.111 24.9799 157.045 25.2187 155.861 25.2187V27.2187C157.324 27.2187 158.69 26.9212 159.945 26.3143L159.074 24.5138ZM155.861 25.2187C154.545 25.2187 153.509 24.9236 152.7 24.3912L151.601 26.0619C152.802 26.8524 154.241 27.2187 155.861 27.2187V25.2187ZM152.705 24.3945C151.903 23.8595 151.323 23.1007 150.972 22.0684L149.079 22.7129C149.561 24.1285 150.398 25.2603 151.596 26.0586L152.705 24.3945ZM150.972 22.0696C150.623 21.0383 150.546 19.7548 150.809 18.18L148.836 17.8512C148.536 19.6514 148.595 21.2846 149.078 22.7117L150.972 22.0696ZM150.81 18.1749C151.003 16.9746 151.343 15.9261 151.818 15.0182L150.046 14.0912C149.458 15.2146 149.058 16.4733 148.835 17.8564L150.81 18.1749ZM151.816 15.0217C152.303 14.0986 152.891 13.331 153.575 12.7073L152.226 11.2302C151.357 12.0231 150.633 12.9796 150.047 14.0876L151.816 15.0217ZM153.575 12.7071C154.268 12.074 155.03 11.5995 155.864 11.276L155.14 9.41146C154.068 9.82756 153.095 10.4364 152.226 11.2304L153.575 12.7071ZM155.868 11.2743C156.702 10.9462 157.578 10.7812 158.502 10.7812V8.78125C157.333 8.78125 156.208 8.99128 155.136 9.41318L155.868 11.2743ZM158.502 10.7812C159.283 10.7812 159.969 10.8967 160.57 11.1128L161.247 9.2309C160.4 8.92624 159.481 8.78125 158.502 8.78125V10.7812ZM160.576 11.115C161.184 11.3296 161.684 11.6279 162.091 12.0019L163.444 10.5294C162.82 9.95545 162.08 9.52459 161.241 9.22876L160.576 11.115ZM162.095 12.0052C162.508 12.3816 162.822 12.8248 163.042 13.3435L164.884 12.5628C164.551 11.7794 164.069 11.0976 163.441 10.526L162.095 12.0052ZM163.042 13.3435C163.257 13.851 163.367 14.4279 163.354 15.0895L165.353 15.1292C165.371 14.2179 165.22 13.3573 164.884 12.5628L163.042 13.3435ZM164.354 14.1094H161.4V16.1094H164.354V14.1094Z" fill="black"/>
</g>
</g>
<defs>
<filter id="filter0_d_121_6" x="-4" y="0" width="180.804" height="48.3116" filterUnits="userSpaceOnUse" color-interpolation-filters="sRGB">
<feFlood flood-opacity="0" result="BackgroundImageFix"/>
<feColorMatrix in="SourceAlpha" type="matrix" values="0 0 0 0 0 0 0 0 0 0 0 0 0 0 0 0 0 0 127 0" result="hardAlpha"/>
<feOffset dy="4"/>
<feGaussianBlur stdDeviation="2"/>
<feComposite in2="hardAlpha" operator="out"/>
<feColorMatrix type="matrix" values="0 0 0 0 0 0 0 0 0 0 0 0 0 0 0 0 0 0 0.25 0"/>
<feBlend mode="normal" in2="BackgroundImageFix" result="effect1_dropShadow_121_6"/>
<feBlend mode="normal" in="SourceGraphic" in2="effect1_dropShadow_121_6" result="shape"/>
</filter>
<filter id="filter1_d_121_6" x="-4" y="6.93994" width="177.428" height="34.3088" filterUnits="userSpaceOnUse" color-interpolation-filters="sRGB">
<feFlood flood-opacity="0" result="BackgroundImageFix"/>
<feColorMatrix in="SourceAlpha" type="matrix" values="0 0 0 0 0 0 0 0 0 0 0 0 0 0 0 0 0 0 127 0" result="hardAlpha"/>
<feOffset dy="4"/>
<feGaussianBlur stdDeviation="2"/>
<feComposite in2="hardAlpha" operator="out"/>
<feColorMatrix type="matrix" values="0 0 0 0 0 0 0 0 0 0 0 0 0 0 0 0 0 0 0.25 0"/>
<feBlend mode="normal" in2="BackgroundImageFix" result="effect1_dropShadow_121_6"/>
<feBlend mode="normal" in="SourceGraphic" in2="effect1_dropShadow_121_6" result="shape"/>
</filter>
</defs>
</svg>
